<svg id="visual" viewBox="0 0 960 300" width="960" height="300" xmlns="http://www.w3.org/2000/svg" xmlns:xlink="http://www.w3.org/1999/xlink" version="1.1"><rect x="0" y="0" width="960" height="300" fill="#8a2be2"></rect><path d="M0 176L14.5 177.5C29 179 58 182 87.2 181.3C116.3 180.7 145.7 176.3 174.8 186C204 195.7 233 219.3 262 229.7C291 240 320 237 349 235.7C378 234.3 407 234.7 436.2 231.3C465.3 228 494.7 221 523.8 207.8C553 194.7 582 175.3 611 175C640 174.7 669 193.3 698 201.3C727 209.3 756 206.7 785.2 206.8C814.3 207 843.7 210 872.8 213.2C902 216.3 931 219.7 945.5 221.3L960 223L960 0L945.5 0C931 0 902 0 872.8 0C843.7 0 814.3 0 785.2 0C756 0 727 0 698 0C669 0 640 0 611 0C582 0 553 0 523.8 0C494.7 0 465.3 0 436.2 0C407 0 378 0 349 0C320 0 291 0 262 0C233 0 204 0 174.8 0C145.7 0 116.3 0 87.2 0C58 0 29 0 14.5 0L0 0Z" fill="#0b0b0b"></path><path d="M0 142L14.5 148.2C29 154.3 58 166.7 87.2 163.2C116.3 159.7 145.7 140.3 174.8 143.8C204 147.3 233 173.7 262 187.5C291 201.3 320 202.7 349 190.5C378 178.3 407 152.7 436.2 146.2C465.3 139.7 494.7 152.3 523.8 161.3C553 170.3 582 175.7 611 177.2C640 178.7 669 176.3 698 178.3C727 180.3 756 186.7 785.2 179.2C814.3 171.7 843.7 150.3 872.8 141.8C902 133.3 931 137.7 945.5 139.8L960 142L960 0L945.5 0C931 0 902 0 872.8 0C843.7 0 814.3 0 785.2 0C756 0 727 0 698 0C669 0 640 0 611 0C582 0 553 0 523.8 0C494.7 0 465.3 0 436.2 0C407 0 378 0 349 0C320 0 291 0 262 0C233 0 204 0 174.8 0C145.7 0 116.3 0 87.2 0C58 0 29 0 14.5 0L0 0Z" fill="#090909"></path><path d="M0 155L14.5 152.8C29 150.7 58 146.3 87.2 146.3C116.3 146.3 145.7 150.7 174.8 147.8C204 145 233 135 262 126.5C291 118 320 111 349 111C378 111 407 118 436.2 119.5C465.3 121 494.7 117 523.8 113.3C553 109.7 582 106.3 611 102.7C640 99 669 95 698 99.2C727 103.3 756 115.7 785.2 125C814.3 134.3 843.7 140.7 872.8 140.7C902 140.7 931 134.3 945.5 131.2L960 128L960 0L945.5 0C931 0 902 0 872.8 0C843.7 0 814.3 0 785.2 0C756 0 727 0 698 0C669 0 640 0 611 0C582 0 553 0 523.8 0C494.7 0 465.3 0 436.2 0C407 0 378 0 349 0C320 0 291 0 262 0C233 0 204 0 174.8 0C145.7 0 116.3 0 87.2 0C58 0 29 0 14.5 0L0 0Z" fill="#060607"></path><path d="M0 105L14.5 102.7C29 100.3 58 95.7 87.2 91.8C116.3 88 145.7 85 174.8 83.5C204 82 233 82 262 77.7C291 73.3 320 64.7 349 64.7C378 64.7 407 73.3 436.2 82C465.3 90.7 494.7 99.3 523.8 105C553 110.7 582 113.3 611 107.3C640 101.3 669 86.7 698 84.7C727 82.7 756 93.3 785.2 99.2C814.3 105 843.7 106 872.8 98.5C902 91 931 75 945.5 67L960 59L960 0L945.5 0C931 0 902 0 872.8 0C843.7 0 814.3 0 785.2 0C756 0 727 0 698 0C669 0 640 0 611 0C582 0 553 0 523.8 0C494.7 0 465.3 0 436.2 0C407 0 378 0 349 0C320 0 291 0 262 0C233 0 204 0 174.8 0C145.7 0 116.3 0 87.2 0C58 0 29 0 14.5 0L0 0Z" fill="#030405"></path><path d="M0 74L14.5 72.3C29 70.7 58 67.3 87.2 65.5C116.3 63.7 145.7 63.3 174.8 64.7C204 66 233 69 262 66.8C291 64.7 320 57.3 349 54.7C378 52 407 54 436.2 56.2C465.3 58.3 494.7 60.7 523.8 55.5C553 50.3 582 37.7 611 33.7C640 29.7 669 34.3 698 40.3C727 46.3 756 53.7 785.2 58C814.3 62.3 843.7 63.7 872.8 65.3C902 67 931 69 945.5 70L960 71L960 0L945.5 0C931 0 902 0 872.8 0C843.7 0 814.3 0 785.2 0C756 0 727 0 698 0C669 0 640 0 611 0C582 0 553 0 523.8 0C494.7 0 465.3 0 436.2 0C407 0 378 0 349 0C320 0 291 0 262 0C233 0 204 0 174.8 0C145.7 0 116.3 0 87.2 0C58 0 29 0 14.5 0L0 0Z" fill="#010103"></path></svg>