<svg id="visual" viewBox="0 0 960 300" width="960" height="300" xmlns="http://www.w3.org/2000/svg" xmlns:xlink="http://www.w3.org/1999/xlink" version="1.1"><rect x="0" y="0" width="960" height="300" fill="#8a2be2"></rect><path d="M0 62L14.5 64.8C29 67.7 58 73.3 87.2 77.3C116.3 81.3 145.7 83.7 174.8 85.2C204 86.7 233 87.3 262 88.7C291 90 320 92 349 98.3C378 104.7 407 115.3 436.2 108.8C465.3 102.3 494.7 78.7 523.8 81.8C553 85 582 115 611 129.2C640 143.3 669 141.7 698 133.3C727 125 756 110 785.2 101C814.3 92 843.7 89 872.8 85.7C902 82.3 931 78.7 945.5 76.8L960 75L960 301L945.5 301C931 301 902 301 872.8 301C843.7 301 814.3 301 785.2 301C756 301 727 301 698 301C669 301 640 301 611 301C582 301 553 301 523.8 301C494.7 301 465.3 301 436.2 301C407 301 378 301 349 301C320 301 291 301 262 301C233 301 204 301 174.8 301C145.7 301 116.3 301 87.2 301C58 301 29 301 14.5 301L0 301Z" fill="#0b0b0b"></path><path d="M0 101L14.5 106.8C29 112.7 58 124.3 87.2 131.7C116.3 139 145.7 142 174.8 142.5C204 143 233 141 262 142.7C291 144.3 320 149.7 349 144.2C378 138.7 407 122.3 436.2 115.8C465.3 109.3 494.7 112.7 523.8 111.8C553 111 582 106 611 116.2C640 126.3 669 151.7 698 158.2C727 164.7 756 152.3 785.2 148.3C814.3 144.3 843.7 148.7 872.8 144.8C902 141 931 129 945.5 123L960 117L960 301L945.5 301C931 301 902 301 872.8 301C843.7 301 814.3 301 785.2 301C756 301 727 301 698 301C669 301 640 301 611 301C582 301 553 301 523.8 301C494.7 301 465.3 301 436.2 301C407 301 378 301 349 301C320 301 291 301 262 301C233 301 204 301 174.8 301C145.7 301 116.3 301 87.2 301C58 301 29 301 14.5 301L0 301Z" fill="#090909"></path><path d="M0 176L14.5 170.7C29 165.3 58 154.7 87.2 151.2C116.3 147.7 145.7 151.3 174.8 160.5C204 169.7 233 184.3 262 181.5C291 178.7 320 158.3 349 153C378 147.7 407 157.3 436.2 166C465.3 174.7 494.7 182.3 523.8 178.5C553 174.7 582 159.3 611 161C640 162.7 669 181.3 698 186C727 190.7 756 181.3 785.2 177.8C814.3 174.3 843.7 176.7 872.8 175.3C902 174 931 169 945.5 166.5L960 164L960 301L945.5 301C931 301 902 301 872.8 301C843.7 301 814.3 301 785.2 301C756 301 727 301 698 301C669 301 640 301 611 301C582 301 553 301 523.8 301C494.7 301 465.3 301 436.2 301C407 301 378 301 349 301C320 301 291 301 262 301C233 301 204 301 174.8 301C145.7 301 116.3 301 87.2 301C58 301 29 301 14.5 301L0 301Z" fill="#060607"></path><path d="M0 243L14.5 240.5C29 238 58 233 87.2 225.3C116.3 217.7 145.7 207.3 174.8 209.3C204 211.3 233 225.7 262 232.5C291 239.3 320 238.7 349 229.2C378 219.7 407 201.3 436.2 199.2C465.3 197 494.7 211 523.8 213.8C553 216.7 582 208.3 611 205C640 201.7 669 203.3 698 200.8C727 198.3 756 191.7 785.2 196.8C814.3 202 843.7 219 872.8 228C902 237 931 238 945.5 238.5L960 239L960 301L945.5 301C931 301 902 301 872.8 301C843.7 301 814.3 301 785.2 301C756 301 727 301 698 301C669 301 640 301 611 301C582 301 553 301 523.8 301C494.7 301 465.3 301 436.2 301C407 301 378 301 349 301C320 301 291 301 262 301C233 301 204 301 174.8 301C145.7 301 116.3 301 87.2 301C58 301 29 301 14.5 301L0 301Z" fill="#030405"></path><path d="M0 256L14.5 252C29 248 58 240 87.2 242.7C116.3 245.3 145.7 258.7 174.8 258.8C204 259 233 246 262 239.2C291 232.3 320 231.7 349 231C378 230.3 407 229.7 436.2 234.5C465.3 239.3 494.7 249.7 523.8 252.3C553 255 582 250 611 248.7C640 247.3 669 249.7 698 252.3C727 255 756 258 785.2 261.5C814.3 265 843.7 269 872.8 263.8C902 258.7 931 244.3 945.5 237.2L960 230L960 301L945.5 301C931 301 902 301 872.8 301C843.7 301 814.3 301 785.2 301C756 301 727 301 698 301C669 301 640 301 611 301C582 301 553 301 523.8 301C494.7 301 465.3 301 436.2 301C407 301 378 301 349 301C320 301 291 301 262 301C233 301 204 301 174.8 301C145.7 301 116.3 301 87.2 301C58 301 29 301 14.5 301L0 301Z" fill="#010103"></path></svg>